<?xml version="1.0" standalone="no"?><!DOCTYPE svg PUBLIC "-//W3C//DTD SVG 1.1//EN" "http://www.w3.org/Graphics/SVG/1.1/DTD/svg11.dtd"><svg t="1639448985381" class="icon" viewBox="0 0 1024 1024" version="1.1" xmlns="http://www.w3.org/2000/svg" p-id="2999" xmlns:xlink="http://www.w3.org/1999/xlink" width="200" height="200"><defs><style type="text/css"></style></defs><path d="M213.333333 938.666667h597.333334c47.061333 0 85.333333-38.272 85.333333-85.333334V213.333333c0-47.061333-38.272-85.333333-85.333333-85.333333h-85.333334a42.666667 42.666667 0 0 0-42.666666-42.666667H341.333333a42.666667 42.666667 0 0 0-42.666666 42.666667H213.333333c-47.061333 0-85.333333 38.272-85.333333 85.333333v640c0 47.061333 38.272 85.333333 85.333333 85.333334zM213.333333 213.333333h85.333334v85.333334h426.666666V213.333333h85.333334v640H213.333333V213.333333z" p-id="3000" fill="#1296db"></path><path d="M469.333333 579.669333l-76.501333-76.501333-60.330667 60.330667L469.333333 700.330667l222.165334-222.165334-60.330667-60.330666z" p-id="3001" fill="#1296db"></path></svg>